<svg xmlns="http://www.w3.org/2000/svg" viewBox="0 0 512 512">
  <path d="M 30.943359 -0.65625 C 24.343359 -0.65625 18.943359 4.7437496 18.943359 11.34375 L 18.943359 99.34375 C 18.943359 105.94375 24.343359 111.34375 30.943359 111.34375 L 38.943359 111.34375 C 45.543359 111.34375 50.943359 105.94375 50.943359 99.34375 L 50.943359 53.943359 L 94.943359 97.943359 L 63.84375 129.04297 C 59.14375 133.74297 59.14375 141.34297 63.84375 146.04297 L 69.542969 151.74219 C 74.242969 156.44219 81.842969 156.44219 86.542969 151.74219 L 117.64258 120.64258 L 136.84961 139.84961 C 102.78259 166.13511 81.539062 203.29838 81.539062 244.50781 C 81.539062 277.52252 95.33241 307.76253 118.20703 332.10742 C 107.87879 359.43471 86.391511 382.60147 86.044922 382.87891 C 81.470001 387.73401 80.221432 394.80855 82.855469 400.91211 C 85.489519 407.01567 91.451035 410.96875 98.105469 410.96875 C 140.73544 410.96875 174.35414 393.14334 194.52539 378.85547 C 209.84027 383.66406 226.04209 386.89627 242.94336 388.16602 L 242.94336 423.34375 L 190.94336 423.34375 C 184.34336 423.34375 178.94336 428.74375 178.94336 435.34375 L 178.94336 443.34375 C 178.94336 449.94375 184.34336 455.34375 190.94336 455.34375 L 242.94336 455.34375 L 242.94336 499.34375 C 242.94336 505.94375 248.34336 511.34375 254.94336 511.34375 L 262.94336 511.34375 C 269.54336 511.34375 274.94336 505.94375 274.94336 499.34375 L 274.94336 455.34375 L 326.94336 455.34375 C 333.54336 455.34375 338.94336 449.94375 338.94336 443.34375 L 338.94336 435.34375 C 338.94336 428.74375 333.54336 423.34375 326.94336 423.34375 L 274.94336 423.34375 L 274.94336 388.1875 C 365.47903 381.63033 436.44141 319.82778 436.44141 244.50781 C 436.44141 203.2771 415.17598 166.09642 381.07812 139.80859 L 466.94336 53.943359 L 466.94336 99.34375 C 466.94336 105.94375 472.34336 111.34375 478.94336 111.34375 L 486.94336 111.34375 C 493.54336 111.34375 498.94336 105.94375 498.94336 99.34375 L 498.94336 11.34375 C 498.94336 4.7437496 493.54336 -0.65625 486.94336 -0.65625 L 398.94336 -0.65625 C 392.34336 -0.65625 386.94336 4.7437496 386.94336 11.34375 L 386.94336 19.34375 C 386.94336 25.94375 392.34336 31.34375 398.94336 31.34375 L 444.34375 31.34375 L 353.36719 122.32031 C 326.03085 108.33734 293.67754 100.24219 258.99023 100.24219 C 224.27662 100.24219 191.90022 108.34904 164.55078 122.35156 L 140.14258 97.943359 L 171.24219 66.84375 C 175.94219 62.14375 175.94219 54.54375 171.24219 49.84375 L 165.54297 44.142578 C 160.84297 39.442578 153.24297 39.442578 148.54297 44.142578 L 117.54297 75.34375 L 73.542969 31.34375 L 118.94336 31.34375 C 125.54336 31.34375 130.94336 25.94375 130.94336 19.34375 L 130.94336 11.34375 C 130.94336 4.7437496 125.54336 -0.65625 118.94336 -0.65625 L 30.943359 -0.65625 z M 258.87305 132.41602 C 338.44473 132.41602 403.19727 184.0002 403.19727 247.33789 C 403.19727 310.67559 338.44473 362.25977 258.87305 362.25977 C 240.6392 362.25977 222.59939 359.45255 205.26758 353.90234 L 195.47461 350.76758 L 187.09766 356.77539 C 172.27866 367.41873 149.40604 379.82506 120.99219 382.63281 C 128.72384 372.77302 140.19194 356.25215 147.2793 337.18555 L 151.85547 324.97461 L 143.02734 315.44141 C 124.40692 295.46065 114.54883 271.88942 114.54883 247.33789 C 114.54883 184.00019 179.30134 132.41602 258.87305 132.41602 z " />
</svg>
